# xmcd
#
# Track frame offsets:
#	150
#	23100
#	39175
#	60059
#	71981
#	84907
#	96287
#	113096
#	132950
#	151715
#	169418
#	183019
#	201341
#	220838
#	240213
#
# Disc length: 3311 seconds
#
# Revision: 0
# Processed by: cddbd v1.5.2PL0 Copyright (c) Steve Scherf et al.
# Submitted via: EasyCDDAExtractor 16.0.6.1
#
DISCID=b70ced0f
DTITLE=Συλλογικός δίσκος - Σμύρνη συγγνώμη-Παραδ. Σμύρνης
DYEAR=2008
DGENRE=Παραδοσιακή
TTITLE0=Καρούνης Ζαχαρίας - Κοράσιν ετραγούδαγε
TTITLE1=Πανταζή Γιώτα - Πέργαμος
TTITLE2=Πανταζή Γιώτα - Τσακιτζής
TTITLE3=Πανταζή Γιώτα - Από ξένο τόπο
TTITLE4=Άνευ ερμηνευτού - Ορχηστρικό ταξίμι [αυτοσχεδιασμός]
TTITLE5=Χορωδία συλλ. Μικρασιατισσών - Όλοι στην Κάτω Παναγιά
TTITLE6=Καρούνης Ζαχαρίας - Δεν είν' αυγή
TTITLE7=Πανταζή Γιώτα - Αλατσατιανή
TTITLE8=Χορωδία συλλ. Μικρασιατισσών - Ολμάζ
TTITLE9=Χορωδία συλλ. Μικρασιατισσών - Κανάρια
TTITLE10=Πανταζή Γιώτα - Τι σε μέλει εσένανε
TTITLE11=Πανταζή Γιώτα - Τζιβαέρι
TTITLE12=Πανταζή Γιώτα - Γλυκειά μου Κάτω Παναγιά
TTITLE13=Πανταζή Γιώτα - Σαν τα μάρμαρα της Πόλης
TTITLE14=Χορωδία συλλ. Μικρασιατισσών - Πάγω στης Προύσας τα βουνά
EXTD=
EXTT0=
EXTT1=
EXTT2=
EXTT3=
EXTT4=
EXTT5=
EXTT6=
EXTT7=
EXTT8=
EXTT9=
EXTT10=
EXTT11=
EXTT12=
EXTT13=
EXTT14=
PLAYORDER=
